<svg width="245" height="38" viewBox="0 0 245 38" fill="none" xmlns="http://www.w3.org/2000/svg">
<g filter="url(#filter0_dd_2001_25)">
<path d="M17.8047 29.4883C9.60156 29.4883 4.46484 24 4.46484 14.8984C4.46484 5.81641 9.64062 0.328125 17.8047 0.328125C24.582 0.328125 29.7383 4.625 30.1875 10.9336H24.4453C23.8984 7.47656 21.2422 5.21094 17.8047 5.21094C13.3516 5.21094 10.4805 8.94141 10.4805 14.8789C10.4805 20.8945 13.3125 24.6055 17.8242 24.6055C21.3203 24.6055 23.8398 22.5547 24.4648 19.2148H30.207C29.543 25.5039 24.7188 29.4883 17.8047 29.4883ZM42.9805 29.4492C36.6523 29.4492 32.6094 25.3867 32.6094 18.5117C32.6094 11.7344 36.7109 7.61328 42.9805 7.61328C49.25 7.61328 53.3516 11.7148 53.3516 18.5117C53.3516 25.4062 49.3086 29.4492 42.9805 29.4492ZM42.9805 25.0938C45.7734 25.0938 47.5508 22.7305 47.5508 18.5312C47.5508 14.3711 45.7539 11.9688 42.9805 11.9688C40.207 11.9688 38.3906 14.3711 38.3906 18.5312C38.3906 22.7305 40.168 25.0938 42.9805 25.0938ZM57.8242 29V12.3594H54.9727V8.16016H57.8242V6.57812C57.8242 2.47656 59.7578 0.5625 64.7188 0.5625C65.7734 0.5625 66.9648 0.679688 67.6289 0.816406V4.58594C67.2188 4.50781 66.6523 4.46875 66.0859 4.46875C64.2109 4.46875 63.3906 5.28906 63.3906 6.77344V8.16016H67.5508V12.3594H63.5273V29H57.8242ZM72.082 29V12.3594H69.2305V8.16016H72.082V6.57812C72.082 2.47656 74.0156 0.5625 78.9766 0.5625C80.0312 0.5625 81.2227 0.679688 81.8867 0.816406V4.58594C81.4766 4.50781 80.9102 4.46875 80.3438 4.46875C78.4688 4.46875 77.6484 5.28906 77.6484 6.77344V8.16016H81.8086V12.3594H77.7852V29H72.082ZM93.625 11.832C91.125 11.832 89.3281 13.7266 89.1328 16.3438H98.0195C97.9023 13.668 96.1641 11.832 93.625 11.832ZM98.0977 22.5938H103.332C102.707 26.6953 98.957 29.4492 93.7812 29.4492C87.3359 29.4492 83.4688 25.3281 83.4688 18.6289C83.4688 11.9492 87.375 7.61328 93.5664 7.61328C99.6602 7.61328 103.508 11.7344 103.508 18.1016V19.8398H89.0742V20.1914C89.0742 23.1797 90.9688 25.2305 93.8789 25.2305C95.9688 25.2305 97.5703 24.1953 98.0977 22.5938ZM115.852 11.832C113.352 11.832 111.555 13.7266 111.359 16.3438H120.246C120.129 13.668 118.391 11.832 115.852 11.832ZM120.324 22.5938H125.559C124.934 26.6953 121.184 29.4492 116.008 29.4492C109.562 29.4492 105.695 25.3281 105.695 18.6289C105.695 11.9492 109.602 7.61328 115.793 7.61328C121.887 7.61328 125.734 11.7344 125.734 18.1016V19.8398H111.301V20.1914C111.301 23.1797 113.195 25.2305 116.105 25.2305C118.195 25.2305 119.797 24.1953 120.324 22.5938ZM149.582 29H137.102V0.816406H149.367C154.66 0.816406 157.98 3.53125 157.98 7.84766C157.98 10.9336 155.676 13.5117 152.688 13.9609V14.1172C156.516 14.4102 159.328 17.2031 159.328 20.9336C159.328 25.8945 155.598 29 149.582 29ZM143 5.21094V12.5352H147.238C150.383 12.5352 152.18 11.1484 152.18 8.76562C152.18 6.5 150.598 5.21094 147.844 5.21094H143ZM143 24.6055H148.078C151.477 24.6055 153.312 23.1602 153.312 20.4648C153.312 17.8281 151.418 16.4219 147.941 16.4219H143V24.6055ZM162.199 29V8.0625H167.707V11.832H167.824C168.566 9.17578 170.344 7.73047 172.805 7.73047C173.469 7.73047 174.035 7.82812 174.426 7.94531V12.9648C173.957 12.7695 173.176 12.6328 172.355 12.6328C169.543 12.6328 167.902 14.3516 167.902 17.3008V29H162.199ZM185.461 11.832C182.961 11.832 181.164 13.7266 180.969 16.3438H189.855C189.738 13.668 188 11.832 185.461 11.832ZM189.934 22.5938H195.168C194.543 26.6953 190.793 29.4492 185.617 29.4492C179.172 29.4492 175.305 25.3281 175.305 18.6289C175.305 11.9492 179.211 7.61328 185.402 7.61328C191.496 7.61328 195.344 11.7344 195.344 18.1016V19.8398H180.91V20.1914C180.91 23.1797 182.805 25.2305 185.715 25.2305C187.805 25.2305 189.406 24.1953 189.934 22.5938ZM206.379 25.2109C208.859 25.2109 210.91 23.5898 210.91 21.3242V19.8008L206.496 20.0742C204.367 20.2305 203.156 21.1875 203.156 22.6719C203.156 24.2344 204.445 25.2109 206.379 25.2109ZM204.504 29.332C200.52 29.332 197.492 26.7539 197.492 22.9844C197.492 19.1758 200.422 16.9688 205.637 16.6562L210.91 16.3438V14.957C210.91 13.0039 209.543 11.8711 207.395 11.8711C205.266 11.8711 203.918 12.9258 203.645 14.4688H198.43C198.645 10.4062 202.102 7.61328 207.648 7.61328C213.02 7.61328 216.516 10.3867 216.516 14.6055V29H211.008V25.7969H210.891C209.719 28.0234 207.121 29.332 204.504 29.332ZM226.125 16.4609L233.234 8.0625H239.699L231.711 17.0469L240.09 29H233.527L227.531 20.4844L226.047 22.0859V29H220.344V0.816406H226.047V16.4609H226.125Z" fill="white"/>
</g>
<defs>
<filter id="filter0_dd_2001_25" x="0.464844" y="0.328125" width="243.625" height="37.1602" filterUnits="userSpaceOnUse" color-interpolation-filters="sRGB">
<feFlood flood-opacity="0" result="BackgroundImageFix"/>
<feColorMatrix in="SourceAlpha" type="matrix" values="0 0 0 0 0 0 0 0 0 0 0 0 0 0 0 0 0 0 127 0" result="hardAlpha"/>
<feOffset dy="4"/>
<feGaussianBlur stdDeviation="2"/>
<feComposite in2="hardAlpha" operator="out"/>
<feColorMatrix type="matrix" values="0 0 0 0 0 0 0 0 0 0 0 0 0 0 0 0 0 0 0.25 0"/>
<feBlend mode="normal" in2="BackgroundImageFix" result="effect1_dropShadow_2001_25"/>
<feColorMatrix in="SourceAlpha" type="matrix" values="0 0 0 0 0 0 0 0 0 0 0 0 0 0 0 0 0 0 127 0" result="hardAlpha"/>
<feOffset dy="4"/>
<feGaussianBlur stdDeviation="2"/>
<feComposite in2="hardAlpha" operator="out"/>
<feColorMatrix type="matrix" values="0 0 0 0 0 0 0 0 0 0 0 0 0 0 0 0 0 0 0.25 0"/>
<feBlend mode="normal" in2="effect1_dropShadow_2001_25" result="effect2_dropShadow_2001_25"/>
<feBlend mode="normal" in="SourceGraphic" in2="effect2_dropShadow_2001_25" result="shape"/>
</filter>
</defs>
</svg>
